{"title":"The Tragedy of Macbeth 1971 BDRip 720p DTS Legendado PT-BR","uid":13224737,"size":5367291843,"categoryP":"video","categoryS":"hd___movies","magnet":"?xt=urn:btih:e9077a42b527b3bcef7df5553fdf6dc55811c835&amp;dn=The+Tragedy+of+Macbeth+1971+BDRip+720p+DTS+Legendado+PT-BR&amp;tr=udp%3A%2F%2Ftracker.leechers-paradise.org%3A6969&amp;tr=udp%3A%2F%2Fzer0day.ch%3A1337&amp;tr=udp%3A%2F%2Fopen.demonii.com%3A1337&amp;tr=udp%3A%2F%2Ftracker.coppersurfer.tk%3A6969&amp;tr=udp%3A%2F%2Fexodus.desync.com%3A6969","seeders":3,"leechers":2,"uploader":null,"files":1,"time":1452838513,"description":"Audio; English\r\nLegendas/subtitles: Portuguese (MKV track)\r\n\r\n==========================================\r\nViolent, blood-soaked and filled with nudity, Roman Polanski's 1971 film version of &quot;Macbeth&quot; was intended to be a cinematic jolt -- a raw, realistic portrayal of medieval power plays that would be worlds away from the genteel restraint typically accorded to Shakespearean adaptations.\r\n\r\nSome acts of violence that Shakespeare left off-stage were made explicit in the movie -- most notably the death of King Duncan at the hand of Macbeth, who stabs the monarch in the chest. (Pauline Kael was one of a number of critics who drew parallels between the copious bloodshed on screen and the real-life massacre of Tate and her friends in 1969.)\r\n\r\nProfoundly pessimistic, Polanski's version of &quot;Macbeth&quot; is a movie enshrouded in rain and fog. \r\n\r\n==========================================\r\n\r\nViolento, encharcado em sangue e cheio de nudez, a versão de Roman Polanski para Macbeth tinha a pretensão de ser um solavanco cinematográfico, um retrato cru e realista dos jogos de poder medievais que ficaria a léguas de distância das adaptações tipicamente contidas e gentis de Shakespeare.\r\n\r\nAlguns atos de violência que Shakespeare deixou fora do palco tornaram-se explícitas no filme, notadamente a morte do Rei Duncan nas mãos de Macbeth. Paralelos foram traçados entre a cena de esfaqueamento e o massacre verdadeiro de Tate e seus amigos em 1969. A coreografia da luta no final do filme não deixa nada a dever, 45 anos depois, aos blockbusters adolescentes atuais. Macbeth não é teatro gentil e Polanski estava determinado a não fazer um filme dócil.\r\n\r\n===========================================\r\n\r\nVideo\r\nID                             : 1\r\nFormat                         : AVC\r\nFormat/Info                    : Advanced Video Codec\r\nFormat profile                 :   \r\nFormat settings, CABAC         : Yes\r\nFormat settings, ReFrames      : 4 frames\r\nCodec ID                       : V_MPEG4/ISO/AVC\r\nDuration                       : 2h 20mn\r\nBit rate                       : 3 584 Kbps\r\nWidth                          : 1 280 pixels\r\nHeight                         : 544 pixels\r\nDisplay aspect ratio           : 2.35:1\r\nFrame rate mode                : Constant\r\nFrame rate                     : 23.976 fps\r\nColor space                    : YUV\r\nChroma subsampling             : 4:2:0\r\nBit depth                      : 8 bits\r\nScan type                      : Progressive\r\nBits/(Pixel*Frame)             : 0.215\r\nStream size                    : 3.42 GiB (68%)\r\nLanguage                       : English\r\nDefault                        : Yes\r\nForced                         : No\r\nDURATION                       : 02:20:26.377000000\r\nNUMBER_OF_FRAMES               : 202031\r\nNUMBER_OF_BYTES                : 3775369239\r\n_STATISTICS_WRITING_APP        : mkvmerge v8.5.2 ('Crosses') 32bit\r\n_STATISTICS_WRITING_DATE_UTC   : 2016-01-13 10:16:17\r\n_STATISTICS_TAGS               : BPS DURATION NUMBER_OF_FRAMES NUMBER_OF_BYTES\r\n\r\nAudio\r\nID                             : 2\r\nFormat                         : DTS\r\nFormat/Info                    : Digital Theater Systems\r\nMode                           : 16\r\nFormat settings, Endianness    : Big\r\nCodec ID                       : A_DTS\r\nDuration                       : 2h 20mn\r\nBit rate mode                  : Constant\r\nBit rate                       : 1 509 Kbps\r\nChannel(s)                     : 3 channels\r\nChannel positions              : Front: L C R\r\nSampling rate                  : 48.0 KHz\r\nBit depth                      : 24 bits\r\nCompression mode               : Lossy\r\nStream size                    : 1.48 GiB (30%)\r\nLanguage                       : English\r\nDefault                        : Yes\r\nForced                         : No\r\n\r\nText\r\nID                             : 3\r\nFormat                         : UTF-8\r\nCodec ID                       : S_TEXT/UTF8\r\nCodec ID/Info                  : UTF-8 Plain Text\r\nLanguage                       : Portuguese\r\nDefault                        : Yes\r\nForced                         : No","torrent":{"xt":"urn:btih:e9077a42b527b3bcef7df5553fdf6dc55811c835","amp;dn":"The+Tragedy+of+Macbeth+1971+BDRip+720p+DTS+Legendado+PT-BR","amp;tr":["udp%3A%2F%2Ftracker.leechers-paradise.org%3A6969","udp%3A%2F%2Fzer0day.ch%3A1337","udp%3A%2F%2Fopen.demonii.com%3A1337","udp%3A%2F%2Ftracker.coppersurfer.tk%3A6969","udp%3A%2F%2Fexodus.desync.com%3A6969"],"infoHash":"e9077a42b527b3bcef7df5553fdf6dc55811c835","infoHashBuffer":{"type":"Buffer","data":[233,7,122,66,181,39,179,188,239,125,245,85,63,223,109,197,88,17,200,53]},"announce":[],"urlList":[]}}